<?xml version="1.0" encoding="utf-8"?>
<svg xmlns="http://www.w3.org/2000/svg" viewBox="-99.6499 -70.7789 1508.5625 1518.4258" width="1508.56px" height="1518.43px" preserveAspectRatio="none"><defs><style>.cls-1{fill:#e9c01e;}.cls-2{fill:#fdd432;}.cls-3{fill:#f3ca28;}.cls-4{fill:#feedac;}.cls-5{fill:#feedaa;}.cls-6{fill:#e6bd1a;}.cls-7{fill:#f1c926;}.cls-8{fill:#fdeda9;}.cls-9{fill:#fceba5;}.cls-10{fill:#fed735;}</style></defs><g style="transform-origin: 663.388px 691.339px;" transform="matrix(1.03892195, 0.14660798, -0.14660798, 1.03892195, -8.75712679, -2.90514648)" id="object-0"><path class="cls-1" d="M 623.948 53.176 C 733.416 111.909 809.806 205.73 882.084 302.329 C 914.581 345.725 946.627 369.126 1005.19 363.165 C 1071.57 356.416 1139.92 357.824 1205.84 375.987 C 1294.24 400.393 1320.43 454.724 1281.24 537.581 C 1245.57 612.957 1192.84 677.265 1139.91 740.804 C 1121.76 762.591 1117.62 781.393 1125.83 808.69 C 1152.53 897.01 1173.88 986.577 1184.67 1078.65 C 1199.69 1206.59 1141.67 1257.19 1019.74 1220.1 C 944.215 1197.12 871.233 1167.35 800.663 1132.48 C 772.503 1118.58 754.489 1119.34 730.056 1140.79 C 664.987 1197.82 596.932 1251.67 522.937 1296.9 C 483.963 1320.71 442.961 1349.13 394.685 1320.19 C 346.944 1291.58 332.094 1246.36 332.882 1192.15 C 334.14 1105.57 330.301 1018.91 332.197 932.351 C 333.042 893.321 321.872 867.629 286.643 848.368 C 244.562 825.389 206.264 795.595 164.84 771.302 C 113.129 740.983 65.444 707.078 34.618 653.967 C 22.574 636.245 29.145 624.042 34.618 607.747 C 53.232 551.52 97.453 522.806 149.043 503.019 C 190.269 487.211 231.599 470.756 273.746 458.46 C 328.189 442.587 362.479 413.037 381.694 358.462 C 404.701 293.403 435.564 231.121 468.906 170.445 C 497.067 119.203 530.099 72.691 589.292 53.176 C 601.823 46.606 612.392 53.176 623.948 53.176 Z" style=""/><path class="cls-2" d="M 1072.57 1168 C 974.457 1147.93 884.834 1104.75 795.247 1062.72 C 760.337 1046.34 737.866 1048.01 709.086 1074.1 C 638.478 1138.11 563.9 1197.43 481.522 1246.38 C 427.304 1278.61 419.119 1276.59 390.752 1214.34 C 390.17 1211.28 389.588 1208.23 388.968 1205.18 C 383.993 1091.76 388.124 978.267 386.744 865.038 C 385.128 860.257 382.762 855.764 379.732 851.728 C 375.095 845.974 370.345 840.229 367.933 833.011 C 295.401 778.183 214.816 735.839 139.994 684.446 C 114.649 667.071 100.748 652.156 103.104 620.86 C 104.361 604.18 130.325 577.024 161.236 579.314 C 135.892 637.935 150.807 663.035 237.053 701.239 C 236.499 631.064 221.349 556.683 291.158 517.822 C 296.546 512.584 318.652 507.815 324.632 507.008 C 406.794 495.913 426.009 428.591 451.541 366.77 C 462.617 351.882 473.496 336.863 481.916 320.249 C 497.874 302.132 510.931 281.885 524.054 261.657 C 558.456 224.278 591.638 185.239 643.453 170.671 C 707.481 203.581 750.125 260.136 786.62 317.395 C 841.458 403.463 911.521 441.113 1012.55 425.493 C 1042.5 420.866 1074 423.034 1104.54 426.498 C 1183.39 435.443 1208.27 477.186 1178.31 550.328 C 1156.16 604.377 1120.94 650.663 1083.03 693.608 C 1037.54 745.122 1017.73 795.717 1042.86 865.508 C 1063.51 922.767 1074.05 984.427 1082.97 1045.24 C 1089 1086.34 1098.74 1129.07 1072.57 1168 Z" style=""/><path class="cls-3" d="M 1072.57 1168 C 1081.08 1045.29 1042.97 930.126 1013.56 813.815 C 1006.99 787.644 1005.95 770.044 1024.28 746.474 C 1073.4 683.367 1128.95 624.502 1162.52 550.103 C 1194.65 478.895 1175.71 443.967 1097.75 440.775 C 1036.46 438.269 974.88 438.241 913.595 440.953 C 876.198 442.605 853.257 426.498 831.874 398.591 C 771.489 319.742 713.601 238.64 636.535 174.247 C 626.031 172.182 625.027 161.678 618.7 154.535 C 610.825 139.262 605.803 145.523 564.257 148.903 C 593.356 84.134 654.06 106.108 685.056 140.051 C 753.494 214.986 821.37 290.615 885.519 369.201 C 906.17 394.47 925.394 405.894 957.272 406.157 C 1037.66 406.823 1118.15 400.187 1198.36 416.2 C 1255.62 427.634 1274.29 452.555 1242.25 502.559 C 1199.07 570.003 1149.54 633.786 1098.77 695.926 C 1070.53 730.451 1064.04 762.676 1075.56 805.451 C 1099.46 893.978 1118.65 983.797 1139.07 1073.23 C 1142.02 1086.15 1141.89 1099.96 1141.81 1113.35 C 1141.41 1169.66 1128.78 1179.45 1072.57 1168 Z" style=""/><path class="cls-4" d="M 303.671 510.857 C 278.58 576.226 219.406 632.453 261.008 716.746 C 193.179 704.403 156.252 662.941 121.858 625.91 C 93.567 595.46 138.116 581.652 156.505 568.05 C 204.65 546.63 246.656 509.42 303.671 510.857 Z" style=""/><path class="cls-5" d="M 625.29 140.473 C 634.677 153.615 634.311 164.147 636.554 174.266 L 530.483 267.326 C 516.985 273.662 510.471 265.918 505.552 254.964 C 513.127 213.005 549.229 186.882 564.351 149.1 C 583.265 128.477 606 119.747 625.29 140.473 Z" style=""/><path class="cls-6" d="M 367.933 833.011 L 379.713 844.369 C 393.052 860.843 390.78 880.583 390.836 899.638 C 391.087 986.147 391.087 1072.66 390.836 1159.17 C 390.78 1178.2 393.136 1197.98 379.469 1214.31 C 357.767 1215.47 368.477 1198.69 368.43 1191.1 C 367.67 1071.74 367.914 952.373 367.933 833.011 Z" style=""/><path class="cls-7" d="M 390.621 1214.33 C 390.705 1091.01 379.629 967.683 379.713 844.378 C 383.468 844.497 387.223 844.582 390.977 844.632 C 400.486 967.833 400.054 1091.04 391.193 1214.25 L 400.017 1214.33 C 396.253 1214.33 394.375 1214.33 390.621 1214.33 Z" style=""/><path class="cls-8" d="M 511.71 234.341 C 575.437 218.609 545.249 242.789 552.073 247.483 C 528.606 269.072 505.139 303.803 487.802 326.594 C 481.963 330.912 476.713 330.286 472.051 324.717 C 477.336 298.65 494.814 254.851 511.71 234.341 Z" style=""/><path class="cls-9" d="M 472.051 324.717 L 487.774 326.594 C 479.579 343.49 473.506 362.377 451.484 366.798 C 458.205 351.676 464.776 337.596 472.051 324.717 Z" style=""/><path class="cls-10" d="M 391.184 1214.25 C 391.109 1091.05 391.036 967.842 390.968 844.632 L 396.393 842.754 C 403.678 966.735 412.792 1090.71 391.184 1214.25 Z" style=""/></g></svg>